<?xml version="1.0" encoding="UTF-8" standalone="no"?>
<!-- Created with Inkscape (http://www.inkscape.org/) -->

<svg
   width="200.0px"
   height="200.0px"
   viewBox="0 0 200.0 200.0"
   version="1.1"
   id="SVGRoot"
   sodipodi:docname="logo.svg"
   inkscape:version="1.2.2 (b0a8486541, 2022-12-01)"
   inkscape:export-filename="godot_builder.png"
   inkscape:export-xdpi="96"
   inkscape:export-ydpi="96"
   xmlns:inkscape="http://www.inkscape.org/namespaces/inkscape"
   xmlns:sodipodi="http://sodipodi.sourceforge.net/DTD/sodipodi-0.dtd"
   xmlns="http://www.w3.org/2000/svg"
   xmlns:svg="http://www.w3.org/2000/svg">
  <sodipodi:namedview
     id="namedview6061"
     pagecolor="#ffffff"
     bordercolor="#666666"
     borderopacity="1.0"
     inkscape:showpageshadow="2"
     inkscape:pageopacity="0.0"
     inkscape:pagecheckerboard="0"
     inkscape:deskcolor="#d1d1d1"
     inkscape:document-units="px"
     showgrid="true"
     inkscape:zoom="4.1803382"
     inkscape:cx="121.76048"
     inkscape:cy="92.815457"
     inkscape:window-width="1920"
     inkscape:window-height="1011"
     inkscape:window-x="0"
     inkscape:window-y="0"
     inkscape:window-maximized="1"
     inkscape:current-layer="layer1"
     showguides="true"
     inkscape:lockguides="true">
    <inkscape:grid
       type="xygrid"
       id="grid6547" />
    <sodipodi:guide
       position="180,180"
       orientation="0.70710678,-0.70710678"
       id="guide7780"
       inkscape:locked="true" />
    <sodipodi:guide
       position="80,50"
       orientation="0.70710678,-0.70710678"
       id="guide7788"
       inkscape:locked="true" />
    <sodipodi:guide
       position="50,80"
       orientation="0.70710678,-0.70710678"
       id="guide7790"
       inkscape:locked="true" />
    <sodipodi:guide
       position="60,80"
       orientation="0.70710678,-0.70710678"
       id="guide7848"
       inkscape:locked="true" />
    <sodipodi:guide
       position="80,60"
       orientation="0.70710678,-0.70710678"
       id="guide7850"
       inkscape:locked="true" />
    <sodipodi:guide
       position="110,110"
       orientation="-0.70710678,-0.70710678"
       id="guide7866"
       inkscape:locked="true" />
    <sodipodi:guide
       position="85,85"
       orientation="-0.70710678,-0.70710678"
       id="guide7868"
       inkscape:locked="true" />
  </sodipodi:namedview>
  <defs
     id="defs6056" />
  <g
     inkscape:label="Rocket"
     inkscape:groupmode="layer"
     id="layer1">
    <path
       style="fill:none;stroke:#000000;stroke-width:2.13543;stroke-linecap:butt;stroke-linejoin:miter;stroke-dasharray:none;stroke-opacity:1"
       d="m 180,20 c 0,0 -104.903811,20 -125,95 l 30,30 C 160,124.90381 180,20 180,20"
       id="path7792"
       sodipodi:nodetypes="cccc"
       inkscape:label="Body" />
    <path
       style="fill:none;stroke:#000000;stroke-width:2.13543307;stroke-linecap:butt;stroke-linejoin:miter;stroke-opacity:1;stroke-dasharray:none"
       d="m 60,120 c -35,5 -30,40 -40,60 20,-10 55,-5 60,-40 v 0 0"
       id="path7852"
       sodipodi:nodetypes="ccccc"
       inkscape:label="Exhaust" />
    <path
       style="fill:none;stroke:#000000;stroke-width:2.13543307;stroke-linecap:butt;stroke-linejoin:miter;stroke-opacity:1;stroke-dasharray:none"
       d="M 86,66 C 62.818986,65.199085 45.512403,72.100645 30,95 40.891264,92.367707 51.01215,85.729104 64,94 v 0"
       id="path7872"
       sodipodi:nodetypes="cccc"
       inkscape:label="LeftWing" />
    <path
       style="fill:none;stroke:#000000;stroke-width:2.13543307;stroke-linecap:butt;stroke-linejoin:miter;stroke-opacity:1;stroke-dasharray:none"
       d="m 134,114 c 0.80091,23.18101 -6.10065,40.4876 -29,56 2.63229,-10.89126 9.2709,-21.01215 1,-34 v 0"
       id="path7872-6"
       sodipodi:nodetypes="cccc"
       inkscape:label="RightWing" />
    <path
       style="font-variation-settings:'wght' 524;fill:#ff3333;fill-rule:evenodd;stroke:#ff3333;stroke-width:0;stroke-linecap:round;stroke-linejoin:round;stroke-dashoffset:7.0224;fill-opacity:1;stroke-opacity:1;stroke-dasharray:none"
       d="m 21.918846,177.30695 c 1.215537,-2.99884 2.691281,-8.11261 4.802682,-16.64232 3.193331,-12.90054 4.338917,-16.44015 7.057383,-21.80581 4.958149,-9.78631 12.401216,-15.40952 23.471002,-17.73227 l 2.437322,-0.51142 9.790424,9.77446 9.790421,9.77446 -0.143256,1.15172 c -0.238983,1.92137 -1.251357,5.626 -2.20313,8.06202 -3.347373,8.56749 -9.586783,14.49582 -19.610197,18.63251 -3.666256,1.51307 -7.732061,2.71108 -16.917873,4.98494 -9.799603,2.42579 -13.427483,3.45095 -16.741177,4.7307 -1.125512,0.43467 -2.086297,0.79031 -2.135079,0.79031 -0.04878,0 0.131883,-0.54419 0.401478,-1.2093 z"
       id="path9364" />
    <path
       style="font-variation-settings:'wght' 524;fill:#478cbf;fill-opacity:1;fill-rule:evenodd;stroke:#478cbf;stroke-width:1.13385827;stroke-linecap:round;stroke-linejoin:round;stroke-dasharray:none;stroke-dashoffset:7.0224;stroke-opacity:1"
       d="m 108.12578,163.95172 c 2.22994,-6.98557 2.97307,-10.59886 2.99368,-14.55606 0.0219,-4.21377 -0.52352,-6.94895 -2.07537,-10.40693 -0.89446,-1.99311 -0.90742,-2.10235 -0.29236,-2.46364 0.35398,-0.20793 2.70122,-1.7361 5.21609,-3.39595 5.46753,-3.60863 9.86298,-7.09234 15.00022,-11.88877 l 3.80341,-3.55109 -0.20647,4.69645 c -0.65652,14.93363 -6.09163,26.95983 -16.85861,37.3028 -2.97035,2.85337 -7.83899,6.96521 -8.24719,6.96521 -0.10777,0 0.1922,-1.21591 0.6666,-2.70202 z"
       id="path9626" />
    <path
       style="font-variation-settings:'wght' 524;fill:#478cbf;fill-opacity:1;fill-rule:evenodd;stroke:#478cbf;stroke-width:1.13385827;stroke-linecap:round;stroke-linejoin:round;stroke-dasharray:none;stroke-dashoffset:7.0224;stroke-opacity:1"
       d="m 33.223669,92.56156 c 0.309289,-0.521929 2.477431,-3.318721 3.683759,-4.751861 1.763987,-2.09565 5.867526,-6.234244 7.844412,-7.911423 9.624755,-8.165595 20.633486,-12.223052 34.364753,-12.66572 l 3.591796,-0.115792 -2.9793,3.074902 c -5.973157,6.164827 -11.41586,13.212268 -15.551823,20.137155 -0.558051,0.934353 -1.052952,1.698823 -1.099775,1.698823 -0.04683,0 -0.672689,-0.294813 -1.39081,-0.655138 -3.402565,-1.70728 -6.66875,-2.451645 -10.752503,-2.4505 -4.241214,0.0012 -7.315398,0.613605 -14.073425,2.803603 -3.531458,1.144399 -3.865342,1.221139 -3.637084,0.835951 z"
       id="path9699" />
    <path
       style="fill:none;stroke:#000000;stroke-width:2.13543;stroke-linecap:butt;stroke-linejoin:miter;stroke-dasharray:none;stroke-opacity:1"
       d="m 150,29 c 2.4066,10.20714 10.13826,17.819791 21,21 h -1"
       id="path11222"
       sodipodi:nodetypes="ccc" />
    <path
       style="font-variation-settings:'wght' 524;fill:#478cbf;fill-opacity:1;fill-rule:evenodd;stroke:#478cbf;stroke-width:0.91464567;stroke-linecap:round;stroke-linejoin:round;stroke-dasharray:none;stroke-dashoffset:7.0224;stroke-opacity:1"
       d="m 168.60146,47.880734 c -6.75158,-2.635173 -12.30884,-7.47954 -15.24942,-13.293204 -0.79873,-1.579118 -1.8825,-4.377065 -1.8825,-4.860008 0,-0.377213 7.47913,-2.940138 14.28249,-4.894276 4.73467,-1.359948 12.5449,-3.355743 12.65533,-3.233894 0.1072,0.118283 -1.95357,8.223948 -3.10873,12.227592 -1.18194,4.096519 -4.51491,14.316992 -4.75442,14.579348 -0.0862,0.09436 -0.96039,-0.142135 -1.94275,-0.525558 z"
       id="path11341" />
    <path
       style="font-variation-settings:'wght' 524;fill:#ffffff;fill-opacity:1;fill-rule:evenodd;stroke:#ffffff;stroke-width:0.3;stroke-linecap:round;stroke-linejoin:round;stroke-dashoffset:7.0224;stroke-dasharray:none;stroke-opacity:1"
       d="m 70.823731,129.25699 c -8.015545,-8.0158 -14.474968,-14.57889 -14.474968,-14.70729 0,-0.29346 1.041614,-3.6634 1.840303,-5.95393 5.716588,-16.39442 16.61142,-31.827327 31.580597,-44.73501 13.602787,-11.729468 29.890457,-21.492656 49.856267,-29.884948 3.15553,-1.326373 9.38704,-3.756974 9.45578,-3.688228 0.0222,0.02224 0.26158,0.705705 0.53187,1.518811 0.65166,1.960384 2.0921,4.910017 3.25042,6.656006 3.56483,5.373391 8.8075,9.39367 15.44263,11.841972 0.66569,0.245635 1.26033,0.48824 1.32141,0.539122 0.12836,0.10692 -1.65252,4.845099 -3.39088,9.021733 -5.90425,14.185704 -12.66737,26.761067 -20.25486,37.661957 -15.72808,22.596385 -34.53906,37.628085 -56.012557,44.759155 -1.516307,0.50355 -3.187599,1.03491 -3.713982,1.18081 l -0.957062,0.26528 z m 39.573699,-12.19377 c 1.45905,-0.34393 2.62022,-1.05312 4.14925,-2.53419 0.75815,-0.73437 1.37846,-1.37464 1.37846,-1.42284 0,-0.0893 -5.53498,-4.5551 -6.02456,-4.86085 -0.24237,-0.15136 -0.40726,-0.0409 -1.69262,1.13362 -0.78325,0.71572 -1.45578,1.30131 -1.4945,1.30131 -0.0587,0 -5.51833,-4.5204 -6.10405,-5.05392 -0.15586,-0.14197 -0.005,-0.42553 0.92494,-1.7361 l 1.11122,-1.56642 -2.65922,-2.579597 c -1.462573,-1.41878 -2.730734,-2.597158 -2.818136,-2.618616 -0.0874,-0.02146 -0.789659,0.446534 -1.560571,1.03998 -0.770911,0.593447 -1.441974,1.080015 -1.49125,1.081265 -0.04928,0.0012 -1.132855,-1.162696 -2.407952,-2.586544 -1.275097,-1.423849 -2.498871,-2.781862 -2.719498,-3.017807 L 88.587806,93.213519 89.70762,91.89422 c 0.615899,-0.725615 1.201703,-1.417647 1.301785,-1.537847 0.159984,-0.19214 -0.112974,-0.565884 -2.259016,-3.09313 -1.342544,-1.581021 -2.530611,-2.96536 -2.640151,-3.076309 -0.176554,-0.178826 -0.321746,-0.07196 -1.279009,0.941387 -2.155742,2.282045 -2.82663,3.813244 -2.828329,6.455229 -0.0015,2.325941 0.473557,4.112753 1.805533,6.791146 2.320622,4.666404 7.070489,10.020924 12.41482,13.995204 3.377071,2.51134 6.654997,4.13641 9.481107,4.70037 1.22144,0.24374 3.64458,0.2401 4.69307,-0.007 z m 10.20944,-8.72897 c 4.27718,-4.43347 4.34826,-4.49902 4.97275,-4.58629 0.52348,-0.0732 2.02231,-0.37379 4.08465,-0.81931 0.33958,-0.0734 0.37219,-0.15436 0.63441,-1.57584 0.35391,-1.91855 0.55417,-3.810999 0.55417,-5.236908 v -1.126573 l -1.51294,-0.417024 c -0.83212,-0.229363 -1.85858,-0.490368 -2.28102,-0.580011 l -0.76808,-0.162988 -0.0835,-0.618564 c -0.16624,-1.231646 -0.46588,-2.915017 -0.60084,-3.375483 -0.1365,-0.465715 -0.12904,-0.478475 0.70505,-1.20634 0.46365,-0.404606 1.32075,-1.197486 1.90465,-1.76196 l 1.06164,-1.026313 -0.43077,-1.129445 c -0.47639,-1.249038 -1.4382,-3.135693 -2.32502,-4.560675 -0.46274,-0.743558 -0.64482,-0.929045 -0.91406,-0.931155 -0.18491,-0.0015 -1.29105,0.320741 -2.45808,0.715979 l -2.12187,0.718613 -0.82306,-0.956814 c -0.45268,-0.526247 -0.92001,-1.000101 -1.0385,-1.053009 -0.11849,-0.05291 -0.38741,-0.241155 -0.59759,-0.418327 l -0.38215,-0.32213 0.4044,-1.262724 c 0.22242,-0.694496 0.53507,-1.774632 0.69477,-2.400302 0.33927,-1.329118 0.47144,-1.121448 -1.38026,-2.168621 -1.75228,-0.990953 -4.47521,-2.140398 -5.07039,-2.140398 -0.21147,0 -1.11007,0.982149 -3.17137,3.466243 l -0.27672,0.333482 -1.26984,-0.223828 c -0.69842,-0.123107 -1.71634,-0.266961 -2.26206,-0.319678 l -0.99222,-0.09585 -0.29624,-1.143114 c -0.16293,-0.628712 -0.46567,-1.651157 -0.67275,-2.2721 l -0.3765,-1.128986 -1.51417,0.08648 c -2.716964,0.155177 -6.18014,0.857794 -6.310997,1.280389 -0.07782,0.251307 -0.714356,3.936538 -0.774154,4.481951 -0.02949,0.269001 -1.156262,1.519052 -4.343309,4.818519 -2.366917,2.450407 -4.32238,4.507149 -4.345475,4.570538 -0.02309,0.06339 1.126742,1.484476 2.555194,3.157971 1.428452,1.673495 2.615047,3.092564 2.63688,3.153487 0.02183,0.06092 -0.507698,0.760127 -1.176734,1.553791 -0.669037,0.793662 -1.21643,1.493624 -1.21643,1.55547 0,0.08536 2.498648,2.938373 4.979259,5.685424 0.05632,0.06236 0.784886,-0.409902 1.619041,-1.049484 l 1.516647,-1.162876 0.952053,0.913998 c 2.228975,2.139883 4.784845,4.684415 4.784845,4.763625 0,0.047 -0.45463,0.71353 -1.01028,1.48106 -0.55565,0.76754 -0.9944,1.47114 -0.97501,1.56356 0.0194,0.0924 1.33114,1.25367 2.91498,2.58054 l 2.87971,2.41249 0.57043,-0.49603 c 0.31374,-0.27282 0.98878,-0.87072 1.5001,-1.32866 l 0.92967,-0.83262 3.15129,2.53409 c 1.73321,1.39375 3.21323,2.54003 3.28894,2.54729 0.0757,0.007 2.09028,-2.01079 4.47684,-4.48456 z"
       id="path1344" />
  </g>
  <g
     inkscape:groupmode="layer"
     id="layer3"
     inkscape:label="Godot">
    <path
       d="m 109.71483,108.9407 -2.47612,2.22489 c -0.29908,0.2675 -0.74864,0.27573 -1.0563,0.018 l -6.12283,-5.13478 c -0.0137,-0.0118 -0.0296,-0.0253 -0.0434,-0.0387 -0.28463,-0.27548 -0.32804,-0.72197 -0.0934,-1.0485 l 1.82741,-2.54522 -4.67319,-4.523186 -2.484284,1.909428 c -0.334181,0.257148 -0.81086,0.213238 -1.091312,-0.101059 l -5.331708,-5.95209 c -0.267522,-0.299105 -0.27488,-0.749306 -0.01656,-1.056337 L 90.296071,90.145754 85.91249,85 c -0.500408,0.522105 -1.046277,1.096276 -1.155959,1.209606 -4.942308,5.106201 -0.840409,13.830054 7.180055,21.647704 l 0.01065,0.009 0.01065,0.009 c 8.075084,7.76122 16.925834,11.57426 21.868124,6.46805 0.11155,-0.11533 0.66803,-0.67486 1.17399,-1.19215 z"
       style="fill:#478cbf;fill-opacity:1;fill-rule:nonzero;stroke:#000000;stroke-width:1.20188976;stroke-opacity:1;stroke-dasharray:none"
       id="path88-5"
       inkscape:connector-curvature="0"
       inkscape:label="Lower"
       inkscape:transform-center-x="10.228828"
       inkscape:transform-center-y="-8.6323524" />
    <path
       d="m 95.53352,75.078399 -6.831558,7.058124 -0.867724,0.896492 -0.789625,0.815813 c 0.01538,0.01521 0.03147,0.03184 0.04578,0.04861 l 4.875045,5.722707 c 0.255303,0.299806 0.256628,0.740177 0.0035,1.041338 l -2.131496,2.534016 4.366333,4.874379 2.443435,-1.877899 c 0.3169,-0.243379 0.76414,-0.218176 1.05141,0.05988 l 5.67278,5.490681 c 0.28716,0.27793 0.32712,0.7241 0.094,1.04878 l -1.79723,2.50336 5.01435,4.20518 2.46288,-2.21327 c 0.29392,-0.26215 0.73287,-0.27603 1.04087,-0.0309 l 5.87659,4.6838 c 0.0169,0.0136 0.0338,0.0287 0.05,0.0442 l 0.67736,-0.69982 0.004,0.001 7.81084,-8.06989 c 1.67972,-0.22031 3.41429,-0.57776 4.81978,-0.93066 0.54371,-2.24156 0.75126,-4.514153 0.79704,-6.761461 -1.51637,-0.473699 -3.06952,-0.850835 -4.60375,-1.137527 -0.0177,-0.918314 -0.17662,-1.809153 -0.30941,-2.708166 -0.1132,-0.901121 -0.39662,-1.755738 -0.6026,-2.631204 1.329,-1.049037 2.55801,-2.158592 3.78939,-3.366307 -0.72,-2.064065 -1.76311,-3.980597 -2.95119,-5.781896 -1.58731,0.430745 -3.20445,0.995737 -4.72643,1.605087 -0.47843,-0.647763 -1.01746,-1.238237 -1.5851,-1.800686 l 8.3e-4,-8.51e-4 c -0.005,-0.005 -0.008,-0.0065 -0.0106,-0.0092 -0.002,-0.0025 -0.007,-0.0083 -0.009,-0.01088 l -8.3e-4,8.49e-4 c -0.5826,-0.549079 -1.18903,-1.06905 -1.85218,-1.526257 0.5597,-1.540736 1.07194,-3.175171 1.44977,-4.776571 -1.8383,-1.127938 -3.78799,-2.108144 -5.87456,-2.759977 -1.16702,1.270011 -2.2359,2.534549 -3.24065,3.897435 -0.88274,-0.178307 -1.7454,-0.432953 -2.64987,-0.516866 -0.90245,-0.102999 -1.79889,-0.233577 -2.71744,-0.221531 -0.33658,-1.524067 -0.76389,-3.063803 -1.28708,-4.564204 -2.24458,0.119074 -4.50863,0.401196 -6.73155,1.017438 -0.34272,1.674662 -0.64262,3.401071 -0.773,4.847541 z"
       style="fill:#478cbf;fill-opacity:1;fill-rule:nonzero;stroke:#000000;stroke-width:1.20188976;stroke-dasharray:none;stroke-opacity:1"
       id="path84-6"
       inkscape:connector-curvature="0"
       sodipodi:nodetypes="cccccccccsssscccccccccccccccccccsccccccccccc"
       inkscape:label="Upper"
       inkscape:transform-center-x="0.40155427"
       inkscape:transform-center-y="-18.868002" />
  </g>
</svg>
