<?xml version="1.0" encoding="UTF-8" standalone="no"?>
<!-- Created with Inkscape (http://www.inkscape.org/) -->

<svg
   width="200.0px"
   height="200.0px"
   viewBox="0 0 200.0 200.0"
   version="1.1"
   id="SVGRoot"
   sodipodi:docname="logo.svg"
   inkscape:version="1.2.2 (b0a8486541, 2022-12-01)"
   inkscape:export-filename="godot_builder.png"
   inkscape:export-xdpi="53.8325"
   inkscape:export-ydpi="53.8325"
   xmlns:inkscape="http://www.inkscape.org/namespaces/inkscape"
   xmlns:sodipodi="http://sodipodi.sourceforge.net/DTD/sodipodi-0.dtd"
   xmlns="http://www.w3.org/2000/svg"
   xmlns:svg="http://www.w3.org/2000/svg">
  <sodipodi:namedview
     id="namedview6061"
     pagecolor="#ffffff"
     bordercolor="#666666"
     borderopacity="1.0"
     inkscape:showpageshadow="2"
     inkscape:pageopacity="0.0"
     inkscape:pagecheckerboard="0"
     inkscape:deskcolor="#d1d1d1"
     inkscape:document-units="px"
     showgrid="true"
     inkscape:zoom="3.302719"
     inkscape:cx="51.16996"
     inkscape:cy="109.0011"
     inkscape:window-width="1920"
     inkscape:window-height="1011"
     inkscape:window-x="0"
     inkscape:window-y="0"
     inkscape:window-maximized="1"
     inkscape:current-layer="layer1"
     showguides="true"
     inkscape:lockguides="true">
    <inkscape:grid
       type="xygrid"
       id="grid6547" />
    <sodipodi:guide
       position="180,180"
       orientation="0.70710678,-0.70710678"
       id="guide7780"
       inkscape:locked="true" />
    <sodipodi:guide
       position="80,50"
       orientation="0.70710678,-0.70710678"
       id="guide7788"
       inkscape:locked="true" />
    <sodipodi:guide
       position="50,80"
       orientation="0.70710678,-0.70710678"
       id="guide7790"
       inkscape:locked="true" />
    <sodipodi:guide
       position="60,80"
       orientation="0.70710678,-0.70710678"
       id="guide7848"
       inkscape:locked="true" />
    <sodipodi:guide
       position="80,60"
       orientation="0.70710678,-0.70710678"
       id="guide7850"
       inkscape:locked="true" />
    <sodipodi:guide
       position="110,110"
       orientation="-0.70710678,-0.70710678"
       id="guide7866"
       inkscape:locked="true" />
    <sodipodi:guide
       position="85,85"
       orientation="-0.70710678,-0.70710678"
       id="guide7868"
       inkscape:locked="true" />
  </sodipodi:namedview>
  <defs
     id="defs6056" />
  <g
     inkscape:label="Rocket"
     inkscape:groupmode="layer"
     id="layer1">
    <path
       style="fill:none;stroke:#000000;stroke-width:2.13543;stroke-linecap:butt;stroke-linejoin:miter;stroke-dasharray:none;stroke-opacity:1"
       d="m 180,20 c 0,0 -104.903811,20 -125,95 l 30,30 C 160,124.90381 180,20 180,20"
       id="path7792"
       sodipodi:nodetypes="cccc"
       inkscape:label="Body" />
    <path
       style="fill:none;stroke:#000000;stroke-width:2.13543307;stroke-linecap:butt;stroke-linejoin:miter;stroke-opacity:1;stroke-dasharray:none"
       d="m 60,120 c -35,5 -30,40 -40,60 20,-10 55,-5 60,-40 v 0 0"
       id="path7852"
       sodipodi:nodetypes="ccccc"
       inkscape:label="Exhaust" />
    <path
       style="fill:none;stroke:#000000;stroke-width:2.13543307;stroke-linecap:butt;stroke-linejoin:miter;stroke-opacity:1;stroke-dasharray:none"
       d="M 86,66 C 62.818986,65.199085 45.512403,72.100645 30,95 40.891264,92.367707 51.01215,85.729104 64,94 v 0"
       id="path7872"
       sodipodi:nodetypes="cccc"
       inkscape:label="LeftWing" />
    <path
       style="fill:none;stroke:#000000;stroke-width:2.13543307;stroke-linecap:butt;stroke-linejoin:miter;stroke-opacity:1;stroke-dasharray:none"
       d="m 134,114 c 0.80091,23.18101 -6.10065,40.4876 -29,56 2.63229,-10.89126 9.2709,-21.01215 1,-34 v 0"
       id="path7872-6"
       sodipodi:nodetypes="cccc"
       inkscape:label="RightWing" />
    <path
       style="font-variation-settings:'wght' 524;fill:#ff3333;fill-rule:evenodd;stroke:#ff3333;stroke-width:0;stroke-linecap:round;stroke-linejoin:round;stroke-dashoffset:7.0224;fill-opacity:1;stroke-opacity:1;stroke-dasharray:none"
       d="m 21.918846,177.30695 c 1.215537,-2.99884 2.691281,-8.11261 4.802682,-16.64232 3.193331,-12.90054 4.338917,-16.44015 7.057383,-21.80581 4.958149,-9.78631 12.401216,-15.40952 23.471002,-17.73227 l 2.437322,-0.51142 9.790424,9.77446 9.790421,9.77446 -0.143256,1.15172 c -0.238983,1.92137 -1.251357,5.626 -2.20313,8.06202 -3.347373,8.56749 -9.586783,14.49582 -19.610197,18.63251 -3.666256,1.51307 -7.732061,2.71108 -16.917873,4.98494 -9.799603,2.42579 -13.427483,3.45095 -16.741177,4.7307 -1.125512,0.43467 -2.086297,0.79031 -2.135079,0.79031 -0.04878,0 0.131883,-0.54419 0.401478,-1.2093 z"
       id="path9364" />
    <path
       style="font-variation-settings:'wght' 524;fill:#478cbf;fill-opacity:1;fill-rule:evenodd;stroke:#478cbf;stroke-width:1.13385827;stroke-linecap:round;stroke-linejoin:round;stroke-dasharray:none;stroke-dashoffset:7.0224;stroke-opacity:1"
       d="m 108.12578,163.95172 c 2.22994,-6.98557 2.97307,-10.59886 2.99368,-14.55606 0.0219,-4.21377 -0.52352,-6.94895 -2.07537,-10.40693 -0.89446,-1.99311 -0.90742,-2.10235 -0.29236,-2.46364 0.35398,-0.20793 2.70122,-1.7361 5.21609,-3.39595 5.46753,-3.60863 9.86298,-7.09234 15.00022,-11.88877 l 3.80341,-3.55109 -0.20647,4.69645 c -0.65652,14.93363 -6.09163,26.95983 -16.85861,37.3028 -2.97035,2.85337 -7.83899,6.96521 -8.24719,6.96521 -0.10777,0 0.1922,-1.21591 0.6666,-2.70202 z"
       id="path9626" />
    <path
       style="font-variation-settings:'wght' 524;fill:#ffffff;fill-opacity:1;fill-rule:evenodd;stroke:#ffffff;stroke-width:0.37795276;stroke-linecap:round;stroke-linejoin:round;stroke-dasharray:none;stroke-dashoffset:7.0224;stroke-opacity:1"
       d="m 70.845235,129.05527 -14.507123,-14.52441 1.524855,-4.53242 C 62.864963,95.130689 70.651504,82.94085 83.150984,70.41003 93.779566,59.7548 105.12414,51.48528 120.36962,43.279851 c 12.14492,-6.536635 26.70385,-12.60054 40.70575,-16.954247 5.77452,-1.795511 16.96949,-4.765579 17.17775,-4.557321 0.20276,0.202762 -2.84483,11.615489 -4.56788,17.105968 -9.94302,31.683204 -24.62793,58.062859 -42.57923,76.488389 -14.01653,14.38683 -27.40037,22.67632 -45.371804,28.10175 -0.210016,0.0634 -6.910053,-6.4207 -14.888971,-14.40912 z m 41.425785,-17.83964 c 0.79574,-0.38521 1.81134,-1.08843 2.25689,-1.5627 l 0.81011,-0.86231 -0.83939,-0.6668 c -0.46166,-0.36674 -1.54356,-1.22699 -2.40421,-1.91167 l -1.56483,-1.24486 -1.06663,1.03382 c -0.58665,0.5686 -1.19859,1.03382 -1.35987,1.03382 -0.32783,0 -4.78017,-3.57962 -5.43755,-4.3717 -0.33961,-0.40921 -0.2438,-0.74054 0.49382,-1.7076 l 0.91519,-1.199875 -1.95105,-1.851617 c -1.07308,-1.01839 -2.08893,-1.902366 -2.257457,-1.964394 -0.168523,-0.06203 -0.835441,0.290741 -1.482043,0.783928 l -1.175641,0.896705 -2.480083,-2.828261 -2.480084,-2.828263 1.075102,-1.337815 1.075098,-1.337818 -2.008432,-2.287633 c -2.264469,-2.579266 -2.347986,-2.576432 -3.93982,0.133616 -2.290661,3.899774 -0.270106,9.656311 5.587157,15.917747 6.619993,7.07678 13.819913,10.30037 18.233723,8.16368 z m 7.39256,-6.96988 c 2.43568,-2.55986 3.89903,-3.83577 4.40075,-3.83707 0.41341,-0.001 1.32845,-0.16215 2.03342,-0.35795 1.39315,-0.386945 1.44594,-0.507193 1.85519,-4.225775 l 0.21689,-1.970806 -1.15395,-0.351256 c -0.63468,-0.193189 -1.56278,-0.441099 -2.06245,-0.550913 -0.82788,-0.181942 -0.92876,-0.393522 -1.13703,-2.384686 l -0.22855,-2.185029 1.39852,-1.162023 c 0.76919,-0.63911 1.39853,-1.43773 1.39853,-1.774712 0,-0.764624 -2.04628,-4.907845 -2.42392,-4.907845 -0.15268,0 -0.94462,0.235338 -1.75986,0.522972 -1.98993,0.702087 -2.0707,0.685854 -3.58316,-0.720146 l -1.31696,-1.224253 0.5325,-1.793104 c 0.29287,-0.986206 0.53249,-1.919258 0.53249,-2.073451 0,-0.396019 -4.02635,-2.382273 -4.82913,-2.382273 -0.36588,0 -1.22677,0.685274 -1.91309,1.522831 l -1.24784,1.522832 -2.17093,-0.389726 -2.17093,-0.389726 -0.42976,-1.685591 c -0.23636,-0.927075 -0.51491,-1.770744 -0.61898,-1.874819 -0.20281,-0.202809 -5.334298,0.486514 -5.809906,0.780455 -0.156704,0.09685 -0.39043,1.07574 -0.519388,2.175316 -0.231673,1.975373 -0.278441,2.043698 -3.918985,5.725372 l -3.684515,3.726137 2.016335,2.361979 c 1.108987,1.299086 2.092987,2.561725 2.186672,2.805863 0.09368,0.244134 -0.237792,0.92891 -0.736613,1.521726 -0.498821,0.592813 -0.899739,1.183472 -0.890932,1.31258 0.0088,0.129104 0.854631,1.157874 1.879607,2.286154 l 1.863597,2.051421 1.282599,-0.978289 1.282603,-0.978289 2.664036,2.664037 2.66403,2.664033 -0.77085,1.042624 c -0.42396,0.57345 -0.77084,1.19229 -0.77084,1.37522 0,0.18292 0.96475,1.13872 2.1439,2.12399 l 2.14389,1.79139 1.0977,-1.06392 c 0.60373,-0.58516 1.24711,-1.05661 1.42974,-1.04766 0.18263,0.009 1.43029,0.94298 2.77259,2.07562 1.34229,1.13264 2.49978,2.06667 2.57221,2.07562 0.0724,0.009 1.77376,-1.70954 3.78077,-3.81886 z"
       id="path9628" />
    <path
       style="font-variation-settings:'wght' 524;fill:#478cbf;fill-opacity:1;fill-rule:evenodd;stroke:#478cbf;stroke-width:1.13385827;stroke-linecap:round;stroke-linejoin:round;stroke-dasharray:none;stroke-dashoffset:7.0224;stroke-opacity:1"
       d="m 33.223669,92.56156 c 0.309289,-0.521929 2.477431,-3.318721 3.683759,-4.751861 1.763987,-2.09565 5.867526,-6.234244 7.844412,-7.911423 9.624755,-8.165595 20.633486,-12.223052 34.364753,-12.66572 l 3.591796,-0.115792 -2.9793,3.074902 c -5.973157,6.164827 -11.41586,13.212268 -15.551823,20.137155 -0.558051,0.934353 -1.052952,1.698823 -1.099775,1.698823 -0.04683,0 -0.672689,-0.294813 -1.39081,-0.655138 -3.402565,-1.70728 -6.66875,-2.451645 -10.752503,-2.4505 -4.241214,0.0012 -7.315398,0.613605 -14.073425,2.803603 -3.531458,1.144399 -3.865342,1.221139 -3.637084,0.835951 z"
       id="path9699" />
    <path
       style="fill:none;stroke:#000000;stroke-width:2.13543;stroke-linecap:butt;stroke-linejoin:miter;stroke-dasharray:none;stroke-opacity:1"
       d="m 150,29 c 2.4066,10.20714 10.13826,17.819791 21,21 h -1"
       id="path11222"
       sodipodi:nodetypes="ccc" />
    <path
       style="font-variation-settings:'wght' 524;fill:#478cbf;fill-opacity:1;fill-rule:evenodd;stroke:#478cbf;stroke-width:0.91464567;stroke-linecap:round;stroke-linejoin:round;stroke-dasharray:none;stroke-dashoffset:7.0224;stroke-opacity:1"
       d="m 168.60146,47.880734 c -6.75158,-2.635173 -12.30884,-7.47954 -15.24942,-13.293204 -0.79873,-1.579118 -1.8825,-4.377065 -1.8825,-4.860008 0,-0.377213 7.47913,-2.940138 14.28249,-4.894276 4.73467,-1.359948 12.5449,-3.355743 12.65533,-3.233894 0.1072,0.118283 -1.95357,8.223948 -3.10873,12.227592 -1.18194,4.096519 -4.51491,14.316992 -4.75442,14.579348 -0.0862,0.09436 -0.96039,-0.142135 -1.94275,-0.525558 z"
       id="path11341" />
  </g>
  <g
     inkscape:groupmode="layer"
     id="layer3"
     inkscape:label="Godot">
    <path
       d="m 109.71483,108.9407 -2.47612,2.22489 c -0.29908,0.2675 -0.74864,0.27573 -1.0563,0.018 l -6.12283,-5.13478 c -0.0137,-0.0118 -0.0296,-0.0253 -0.0434,-0.0387 -0.28463,-0.27548 -0.32804,-0.72197 -0.0934,-1.0485 l 1.82741,-2.54522 -4.67319,-4.523186 -2.484284,1.909428 c -0.334181,0.257148 -0.81086,0.213238 -1.091312,-0.101059 l -5.331708,-5.95209 c -0.267522,-0.299105 -0.27488,-0.749306 -0.01656,-1.056337 L 90.296071,90.145754 85.91249,85 c -0.500408,0.522105 -1.046277,1.096276 -1.155959,1.209606 -4.942308,5.106201 -0.840409,13.830054 7.180055,21.647704 l 0.01065,0.009 0.01065,0.009 c 8.075084,7.76122 16.925834,11.57426 21.868124,6.46805 0.11155,-0.11533 0.66803,-0.67486 1.17399,-1.19215 z"
       style="fill:#478cbf;fill-opacity:1;fill-rule:nonzero;stroke:#000000;stroke-width:1.20188976;stroke-opacity:1;stroke-dasharray:none"
       id="path88-5"
       inkscape:connector-curvature="0"
       inkscape:label="Lower"
       inkscape:transform-center-x="10.228828"
       inkscape:transform-center-y="-8.6323524" />
    <path
       d="m 95.53352,75.078399 -6.831558,7.058124 -0.867724,0.896492 -0.789625,0.815813 c 0.01538,0.01521 0.03147,0.03184 0.04578,0.04861 l 4.875045,5.722707 c 0.255303,0.299806 0.256628,0.740177 0.0035,1.041338 l -2.131496,2.534016 4.366333,4.874379 2.443435,-1.877899 c 0.3169,-0.243379 0.76414,-0.218176 1.05141,0.05988 l 5.67278,5.490681 c 0.28716,0.27793 0.32712,0.7241 0.094,1.04878 l -1.79723,2.50336 5.01435,4.20518 2.46288,-2.21327 c 0.29392,-0.26215 0.73287,-0.27603 1.04087,-0.0309 l 5.87659,4.6838 c 0.0169,0.0136 0.0338,0.0287 0.05,0.0442 l 0.67736,-0.69982 0.004,0.001 7.81084,-8.06989 c 1.67972,-0.22031 3.41429,-0.57776 4.81978,-0.93066 0.54371,-2.24156 0.75126,-4.514153 0.79704,-6.761461 -1.51637,-0.473699 -3.06952,-0.850835 -4.60375,-1.137527 -0.0177,-0.918314 -0.17662,-1.809153 -0.30941,-2.708166 -0.1132,-0.901121 -0.39662,-1.755738 -0.6026,-2.631204 1.329,-1.049037 2.55801,-2.158592 3.78939,-3.366307 -0.72,-2.064065 -1.76311,-3.980597 -2.95119,-5.781896 -1.58731,0.430745 -3.20445,0.995737 -4.72643,1.605087 -0.47843,-0.647763 -1.01746,-1.238237 -1.5851,-1.800686 l 8.3e-4,-8.51e-4 c -0.005,-0.005 -0.008,-0.0065 -0.0106,-0.0092 -0.002,-0.0025 -0.007,-0.0083 -0.009,-0.01088 l -8.3e-4,8.49e-4 c -0.5826,-0.549079 -1.18903,-1.06905 -1.85218,-1.526257 0.5597,-1.540736 1.07194,-3.175171 1.44977,-4.776571 -1.8383,-1.127938 -3.78799,-2.108144 -5.87456,-2.759977 -1.16702,1.270011 -2.2359,2.534549 -3.24065,3.897435 -0.88274,-0.178307 -1.7454,-0.432953 -2.64987,-0.516866 -0.90245,-0.102999 -1.79889,-0.233577 -2.71744,-0.221531 -0.33658,-1.524067 -0.76389,-3.063803 -1.28708,-4.564204 -2.24458,0.119074 -4.50863,0.401196 -6.73155,1.017438 -0.34272,1.674662 -0.64262,3.401071 -0.773,4.847541 z"
       style="fill:#478cbf;fill-opacity:1;fill-rule:nonzero;stroke:#000000;stroke-width:1.20188976;stroke-dasharray:none;stroke-opacity:1"
       id="path84-6"
       inkscape:connector-curvature="0"
       sodipodi:nodetypes="cccccccccsssscccccccccccccccccccsccccccccccc"
       inkscape:label="Upper"
       inkscape:transform-center-x="0.40155427"
       inkscape:transform-center-y="-18.868002" />
  </g>
</svg>
